# xmcd
#
# Track frame offsets: 
#        150
#        21812
#        43670
#        65815
#        85915
#        108942
#        129165
#        153772
#        175915
#        198340
#        225122
#        246140
#        266690
#
# Disc length: 3993 seconds
#
# Revision: 3
# Processed by: cddbd v1.5.2PL0 Copyright (c) Steve Scherf et al.
# Submitted via: ExactAudioCopy v0.95b4
#
DISCID=9e0f970d
DTITLE=Various Artist - Salsa Bash
DYEAR=1995
DGENRE=Salsa
TTITLE0=Jerry Rivera - Me Estly Enloqueciendo Por Ti
TTITLE1=Luis Enrique - Quien Eres Tu
TTITLE2=Gilberto Santa Rosa - Te Propongo
TTITLE3=Frankie Ruiz - Hablame
TTITLE4=Victor Manuelle - Apiadante De Mi
TTITLE5=Oscar D'Leon - Señorita
TTITLE6=Willie Colon - El Entierro
TTITLE7=Rey Ruiz - Estamos Solos
TTITLE8=Giro - Amor Lunatico
TTITLE9=Grupo Niche - Gotas De Lluvia
TTITLE10=Edgar Joel - En Las Nubes
TTITLE11=Willy Chirno - Ya Lo Dijo Campoamor
TTITLE12=Salsa Bash - Salsa Bash Mix (Bonus Track)
EXTD=
EXTT0=
EXTT1=
EXTT2=
EXTT3=
EXTT4=
EXTT5=
EXTT6=
EXTT7=
EXTT8=
EXTT9=
EXTT10=
EXTT11=
EXTT12=
PLAYORDER=
